<svg width="197" height="60" viewBox="0 0 197 60" fill="none" xmlns="http://www.w3.org/2000/svg">
<g clip-path="url(#clip0_1_2)">
<rect x="51" y="14" width="108" height="15" rx="3" fill="black"/>
<rect x="49" y="12" width="108" height="15" rx="3" fill="white"/>
<path d="M186.239 51.133C185.264 51.133 184.39 50.9747 183.617 50.658C182.845 50.3413 182.224 49.8727 181.755 49.252C181.299 48.6313 181.059 47.884 181.033 47.01H184.491C184.542 47.504 184.713 47.884 185.004 48.15C185.296 48.4033 185.676 48.53 186.144 48.53C186.626 48.53 187.006 48.4223 187.284 48.207C187.563 47.979 187.702 47.6687 187.702 47.276C187.702 46.9467 187.588 46.6743 187.36 46.459C187.145 46.2437 186.873 46.0663 186.543 45.927C186.227 45.7877 185.771 45.6293 185.175 45.452C184.314 45.186 183.611 44.92 183.066 44.654C182.522 44.388 182.053 43.9953 181.66 43.476C181.268 42.9567 181.071 42.279 181.071 41.443C181.071 40.2017 181.521 39.2327 182.42 38.536C183.32 37.8267 184.491 37.472 185.935 37.472C187.405 37.472 188.589 37.8267 189.488 38.536C190.388 39.2327 190.869 40.208 190.932 41.462H187.417C187.392 41.0313 187.234 40.6957 186.942 40.455C186.651 40.2017 186.277 40.075 185.821 40.075C185.429 40.075 185.112 40.1827 184.871 40.398C184.631 40.6007 184.51 40.8983 184.51 41.291C184.51 41.7217 184.713 42.0573 185.118 42.298C185.524 42.5387 186.157 42.7983 187.018 43.077C187.88 43.3683 188.576 43.647 189.108 43.913C189.653 44.179 190.122 44.5653 190.514 45.072C190.907 45.5787 191.103 46.231 191.103 47.029C191.103 47.789 190.907 48.4793 190.514 49.1C190.134 49.7207 189.577 50.2147 188.842 50.582C188.108 50.9493 187.24 51.133 186.239 51.133Z" fill="black"/>
<path d="M172.785 51.133C171.531 51.133 170.378 50.8417 169.327 50.259C168.288 49.6763 167.458 48.8657 166.838 47.827C166.23 46.7757 165.926 45.5977 165.926 44.293C165.926 42.9883 166.23 41.8167 166.838 40.778C167.458 39.7393 168.288 38.9287 169.327 38.346C170.378 37.7633 171.531 37.472 172.785 37.472C174.039 37.472 175.185 37.7633 176.224 38.346C177.275 38.9287 178.098 39.7393 178.694 40.778C179.302 41.8167 179.606 42.9883 179.606 44.293C179.606 45.5977 179.302 46.7757 178.694 47.827C178.086 48.8657 177.262 49.6763 176.224 50.259C175.185 50.8417 174.039 51.133 172.785 51.133ZM172.785 48.169C173.849 48.169 174.697 47.8143 175.331 47.105C175.977 46.3957 176.3 45.4583 176.3 44.293C176.3 43.115 175.977 42.1777 175.331 41.481C174.697 40.7717 173.849 40.417 172.785 40.417C171.708 40.417 170.847 40.7653 170.201 41.462C169.567 42.1587 169.251 43.1023 169.251 44.293C169.251 45.471 169.567 46.4147 170.201 47.124C170.847 47.8207 171.708 48.169 172.785 48.169Z" fill="black"/>
<path d="M160.884 51L158.11 45.965H157.331V51H154.082V37.662H159.535C160.587 37.662 161.48 37.8457 162.214 38.213C162.962 38.5803 163.519 39.087 163.886 39.733C164.254 40.3663 164.437 41.0757 164.437 41.861C164.437 42.7477 164.184 43.5393 163.677 44.236C163.183 44.9327 162.449 45.4267 161.473 45.718L164.551 51H160.884ZM157.331 43.666H159.345C159.941 43.666 160.384 43.5203 160.675 43.229C160.979 42.9377 161.131 42.526 161.131 41.994C161.131 41.4873 160.979 41.0883 160.675 40.797C160.384 40.5057 159.941 40.36 159.345 40.36H157.331V43.666Z" fill="black"/>
<path d="M152.391 41.956C152.391 42.7287 152.214 43.438 151.859 44.084C151.504 44.7173 150.96 45.2303 150.225 45.623C149.49 46.0157 148.578 46.212 147.489 46.212H145.475V51H142.226V37.662H147.489C148.553 37.662 149.452 37.8457 150.187 38.213C150.922 38.5803 151.473 39.087 151.84 39.733C152.207 40.379 152.391 41.12 152.391 41.956ZM147.242 43.628C147.863 43.628 148.325 43.4823 148.629 43.191C148.933 42.8997 149.085 42.488 149.085 41.956C149.085 41.424 148.933 41.0123 148.629 40.721C148.325 40.4297 147.863 40.284 147.242 40.284H145.475V43.628H147.242Z" fill="black"/>
<path d="M132.581 41.88C132.34 41.4367 131.992 41.101 131.536 40.873C131.092 40.6323 130.567 40.512 129.959 40.512C128.907 40.512 128.065 40.8603 127.432 41.557C126.798 42.241 126.482 43.1593 126.482 44.312C126.482 45.5407 126.811 46.5033 127.47 47.2C128.141 47.884 129.059 48.226 130.225 48.226C131.023 48.226 131.694 48.0233 132.239 47.618C132.796 47.2127 133.201 46.63 133.455 45.87H129.332V43.476H136.4V46.497C136.159 47.3077 135.747 48.0613 135.165 48.758C134.595 49.4547 133.866 50.0183 132.98 50.449C132.093 50.8797 131.092 51.095 129.978 51.095C128.66 51.095 127.482 50.81 126.444 50.24C125.418 49.6573 124.613 48.853 124.031 47.827C123.461 46.801 123.176 45.6293 123.176 44.312C123.176 42.9947 123.461 41.823 124.031 40.797C124.613 39.7583 125.418 38.954 126.444 38.384C127.47 37.8013 128.641 37.51 129.959 37.51C131.555 37.51 132.897 37.8963 133.987 38.669C135.089 39.4417 135.817 40.512 136.172 41.88H132.581Z" fill="black"/>
<path d="M121.372 51H118.123L112.689 42.773V51H109.44V37.662H112.689L118.123 45.927V37.662H121.372V51Z" fill="black"/>
<path d="M107.085 37.662V51H103.836V37.662H107.085Z" fill="black"/>
<path d="M102.129 37.662V40.265H96.6946V43.077H100.761V45.604H96.6946V51H93.4456V37.662H102.129Z" fill="black"/>
<path d="M84.8171 51.133C83.5631 51.133 82.4104 50.8417 81.3591 50.259C80.3204 49.6763 79.4907 48.8657 78.8701 47.827C78.2621 46.7757 77.9581 45.5977 77.9581 44.293C77.9581 42.9883 78.2621 41.8167 78.8701 40.778C79.4907 39.7393 80.3204 38.9287 81.3591 38.346C82.4104 37.7633 83.5631 37.472 84.8171 37.472C86.0711 37.472 87.2174 37.7633 88.2561 38.346C89.3074 38.9287 90.1307 39.7393 90.7261 40.778C91.3341 41.8167 91.6381 42.9883 91.6381 44.293C91.6381 45.5977 91.3341 46.7757 90.7261 47.827C90.1181 48.8657 89.2947 49.6763 88.2561 50.259C87.2174 50.8417 86.0711 51.133 84.8171 51.133ZM84.8171 48.169C85.8811 48.169 86.7297 47.8143 87.3631 47.105C88.0091 46.3957 88.3321 45.4583 88.3321 44.293C88.3321 43.115 88.0091 42.1777 87.3631 41.481C86.7297 40.7717 85.8811 40.417 84.8171 40.417C83.7404 40.417 82.8791 40.7653 82.2331 41.462C81.5997 42.1587 81.2831 43.1023 81.2831 44.293C81.2831 45.471 81.5997 46.4147 82.2331 47.124C82.8791 47.8207 83.7404 48.169 84.8171 48.169Z" fill="black"/>
<path d="M69.8805 51.133C68.6265 51.133 67.4739 50.8417 66.4225 50.259C65.3839 49.6763 64.5542 48.8657 63.9335 47.827C63.3255 46.7757 63.0215 45.5977 63.0215 44.293C63.0215 42.9883 63.3255 41.8167 63.9335 40.778C64.5542 39.7393 65.3839 38.9287 66.4225 38.346C67.4739 37.7633 68.6265 37.472 69.8805 37.472C71.1345 37.472 72.2809 37.7633 73.3195 38.346C74.3709 38.9287 75.1942 39.7393 75.7895 40.778C76.3975 41.8167 76.7015 42.9883 76.7015 44.293C76.7015 45.5977 76.3975 46.7757 75.7895 47.827C75.1815 48.8657 74.3582 49.6763 73.3195 50.259C72.2809 50.8417 71.1345 51.133 69.8805 51.133ZM69.8805 48.169C70.9445 48.169 71.7932 47.8143 72.4265 47.105C73.0725 46.3957 73.3955 45.4583 73.3955 44.293C73.3955 43.115 73.0725 42.1777 72.4265 41.481C71.7932 40.7717 70.9445 40.417 69.8805 40.417C68.8039 40.417 67.9425 40.7653 67.2965 41.462C66.6632 42.1587 66.3465 43.1023 66.3465 44.293C66.3465 45.471 66.6632 46.4147 67.2965 47.124C67.9425 47.8207 68.8039 48.169 69.8805 48.169Z" fill="black"/>
<path d="M57.98 51L55.206 45.965H54.427V51H51.178V37.662H56.631C57.6823 37.662 58.5753 37.8457 59.31 38.213C60.0573 38.5803 60.6147 39.087 60.982 39.733C61.3493 40.3663 61.533 41.0757 61.533 41.861C61.533 42.7477 61.2797 43.5393 60.773 44.236C60.279 44.9327 59.5443 45.4267 58.569 45.718L61.647 51H57.98ZM54.427 43.666H56.441C57.0363 43.666 57.4797 43.5203 57.771 43.229C58.075 42.9377 58.227 42.526 58.227 41.994C58.227 41.4873 58.075 41.0883 57.771 40.797C57.4797 40.5057 57.0363 40.36 56.441 40.36H54.427V43.666Z" fill="black"/>
<path d="M184.239 49.133C183.264 49.133 182.39 48.9747 181.617 48.658C180.845 48.3413 180.224 47.8727 179.755 47.252C179.299 46.6313 179.059 45.884 179.033 45.01H182.491C182.542 45.504 182.713 45.884 183.004 46.15C183.296 46.4033 183.676 46.53 184.144 46.53C184.626 46.53 185.006 46.4223 185.284 46.207C185.563 45.979 185.702 45.6687 185.702 45.276C185.702 44.9467 185.588 44.6743 185.36 44.459C185.145 44.2437 184.873 44.0663 184.543 43.927C184.227 43.7877 183.771 43.6293 183.175 43.452C182.314 43.186 181.611 42.92 181.066 42.654C180.522 42.388 180.053 41.9953 179.66 41.476C179.268 40.9567 179.071 40.279 179.071 39.443C179.071 38.2017 179.521 37.2327 180.42 36.536C181.32 35.8267 182.491 35.472 183.935 35.472C185.405 35.472 186.589 35.8267 187.488 36.536C188.388 37.2327 188.869 38.208 188.932 39.462H185.417C185.392 39.0313 185.234 38.6957 184.942 38.455C184.651 38.2017 184.277 38.075 183.821 38.075C183.429 38.075 183.112 38.1827 182.871 38.398C182.631 38.6007 182.51 38.8983 182.51 39.291C182.51 39.7217 182.713 40.0573 183.118 40.298C183.524 40.5387 184.157 40.7983 185.018 41.077C185.88 41.3683 186.576 41.647 187.108 41.913C187.653 42.179 188.122 42.5653 188.514 43.072C188.907 43.5787 189.103 44.231 189.103 45.029C189.103 45.789 188.907 46.4793 188.514 47.1C188.134 47.7207 187.577 48.2147 186.842 48.582C186.108 48.9493 185.24 49.133 184.239 49.133Z" fill="white"/>
<path d="M170.785 49.133C169.531 49.133 168.378 48.8417 167.327 48.259C166.288 47.6763 165.458 46.8657 164.838 45.827C164.23 44.7757 163.926 43.5977 163.926 42.293C163.926 40.9883 164.23 39.8167 164.838 38.778C165.458 37.7393 166.288 36.9287 167.327 36.346C168.378 35.7633 169.531 35.472 170.785 35.472C172.039 35.472 173.185 35.7633 174.224 36.346C175.275 36.9287 176.098 37.7393 176.694 38.778C177.302 39.8167 177.606 40.9883 177.606 42.293C177.606 43.5977 177.302 44.7757 176.694 45.827C176.086 46.8657 175.262 47.6763 174.224 48.259C173.185 48.8417 172.039 49.133 170.785 49.133ZM170.785 46.169C171.849 46.169 172.697 45.8143 173.331 45.105C173.977 44.3957 174.3 43.4583 174.3 42.293C174.3 41.115 173.977 40.1777 173.331 39.481C172.697 38.7717 171.849 38.417 170.785 38.417C169.708 38.417 168.847 38.7653 168.201 39.462C167.567 40.1587 167.251 41.1023 167.251 42.293C167.251 43.471 167.567 44.4147 168.201 45.124C168.847 45.8207 169.708 46.169 170.785 46.169Z" fill="white"/>
<path d="M158.884 49L156.11 43.965H155.331V49H152.082V35.662H157.535C158.587 35.662 159.48 35.8457 160.214 36.213C160.962 36.5803 161.519 37.087 161.886 37.733C162.254 38.3663 162.437 39.0757 162.437 39.861C162.437 40.7477 162.184 41.5393 161.677 42.236C161.183 42.9327 160.449 43.4267 159.473 43.718L162.551 49H158.884ZM155.331 41.666H157.345C157.941 41.666 158.384 41.5203 158.675 41.229C158.979 40.9377 159.131 40.526 159.131 39.994C159.131 39.4873 158.979 39.0883 158.675 38.797C158.384 38.5057 157.941 38.36 157.345 38.36H155.331V41.666Z" fill="white"/>
<path d="M150.391 39.956C150.391 40.7287 150.214 41.438 149.859 42.084C149.504 42.7173 148.96 43.2303 148.225 43.623C147.49 44.0157 146.578 44.212 145.489 44.212H143.475V49H140.226V35.662H145.489C146.553 35.662 147.452 35.8457 148.187 36.213C148.922 36.5803 149.473 37.087 149.84 37.733C150.207 38.379 150.391 39.12 150.391 39.956ZM145.242 41.628C145.863 41.628 146.325 41.4823 146.629 41.191C146.933 40.8997 147.085 40.488 147.085 39.956C147.085 39.424 146.933 39.0123 146.629 38.721C146.325 38.4297 145.863 38.284 145.242 38.284H143.475V41.628H145.242Z" fill="white"/>
<path d="M130.581 39.88C130.34 39.4367 129.992 39.101 129.536 38.873C129.092 38.6323 128.567 38.512 127.959 38.512C126.907 38.512 126.065 38.8603 125.432 39.557C124.798 40.241 124.482 41.1593 124.482 42.312C124.482 43.5407 124.811 44.5033 125.47 45.2C126.141 45.884 127.059 46.226 128.225 46.226C129.023 46.226 129.694 46.0233 130.239 45.618C130.796 45.2127 131.201 44.63 131.455 43.87H127.332V41.476H134.4V44.497C134.159 45.3077 133.747 46.0613 133.165 46.758C132.595 47.4547 131.866 48.0183 130.98 48.449C130.093 48.8797 129.092 49.095 127.978 49.095C126.66 49.095 125.482 48.81 124.444 48.24C123.418 47.6573 122.613 46.853 122.031 45.827C121.461 44.801 121.176 43.6293 121.176 42.312C121.176 40.9947 121.461 39.823 122.031 38.797C122.613 37.7583 123.418 36.954 124.444 36.384C125.47 35.8013 126.641 35.51 127.959 35.51C129.555 35.51 130.897 35.8963 131.987 36.669C133.089 37.4417 133.817 38.512 134.172 39.88H130.581Z" fill="white"/>
<path d="M119.372 49H116.123L110.689 40.773V49H107.44V35.662H110.689L116.123 43.927V35.662H119.372V49Z" fill="white"/>
<path d="M105.085 35.662V49H101.836V35.662H105.085Z" fill="white"/>
<path d="M100.129 35.662V38.265H94.6946V41.077H98.7606V43.604H94.6946V49H91.4456V35.662H100.129Z" fill="white"/>
<path d="M82.8171 49.133C81.5631 49.133 80.4104 48.8417 79.3591 48.259C78.3204 47.6763 77.4907 46.8657 76.8701 45.827C76.2621 44.7757 75.9581 43.5977 75.9581 42.293C75.9581 40.9883 76.2621 39.8167 76.8701 38.778C77.4907 37.7393 78.3204 36.9287 79.3591 36.346C80.4104 35.7633 81.5631 35.472 82.8171 35.472C84.0711 35.472 85.2174 35.7633 86.2561 36.346C87.3074 36.9287 88.1307 37.7393 88.7261 38.778C89.3341 39.8167 89.6381 40.9883 89.6381 42.293C89.6381 43.5977 89.3341 44.7757 88.7261 45.827C88.1181 46.8657 87.2947 47.6763 86.2561 48.259C85.2174 48.8417 84.0711 49.133 82.8171 49.133ZM82.8171 46.169C83.8811 46.169 84.7297 45.8143 85.3631 45.105C86.0091 44.3957 86.3321 43.4583 86.3321 42.293C86.3321 41.115 86.0091 40.1777 85.3631 39.481C84.7297 38.7717 83.8811 38.417 82.8171 38.417C81.7404 38.417 80.8791 38.7653 80.2331 39.462C79.5997 40.1587 79.2831 41.1023 79.2831 42.293C79.2831 43.471 79.5997 44.4147 80.2331 45.124C80.8791 45.8207 81.7404 46.169 82.8171 46.169Z" fill="white"/>
<path d="M67.8805 49.133C66.6265 49.133 65.4739 48.8417 64.4225 48.259C63.3839 47.6763 62.5542 46.8657 61.9335 45.827C61.3255 44.7757 61.0215 43.5977 61.0215 42.293C61.0215 40.9883 61.3255 39.8167 61.9335 38.778C62.5542 37.7393 63.3839 36.9287 64.4225 36.346C65.4739 35.7633 66.6265 35.472 67.8805 35.472C69.1345 35.472 70.2809 35.7633 71.3195 36.346C72.3709 36.9287 73.1942 37.7393 73.7895 38.778C74.3975 39.8167 74.7015 40.9883 74.7015 42.293C74.7015 43.5977 74.3975 44.7757 73.7895 45.827C73.1815 46.8657 72.3582 47.6763 71.3195 48.259C70.2809 48.8417 69.1345 49.133 67.8805 49.133ZM67.8805 46.169C68.9445 46.169 69.7932 45.8143 70.4265 45.105C71.0725 44.3957 71.3955 43.4583 71.3955 42.293C71.3955 41.115 71.0725 40.1777 70.4265 39.481C69.7932 38.7717 68.9445 38.417 67.8805 38.417C66.8039 38.417 65.9425 38.7653 65.2965 39.462C64.6632 40.1587 64.3465 41.1023 64.3465 42.293C64.3465 43.471 64.6632 44.4147 65.2965 45.124C65.9425 45.8207 66.8039 46.169 67.8805 46.169Z" fill="white"/>
<path d="M55.98 49L53.206 43.965H52.427V49H49.178V35.662H54.631C55.6823 35.662 56.5753 35.8457 57.31 36.213C58.0573 36.5803 58.6147 37.087 58.982 37.733C59.3493 38.3663 59.533 39.0757 59.533 39.861C59.533 40.7477 59.2797 41.5393 58.773 42.236C58.279 42.9327 57.5443 43.4267 56.569 43.718L59.647 49H55.98ZM52.427 41.666H54.441C55.0363 41.666 55.4797 41.5203 55.771 41.229C56.075 40.9377 56.227 40.526 56.227 39.994C56.227 39.4873 56.075 39.0883 55.771 38.797C55.4797 38.5057 55.0363 38.36 54.441 38.36H52.427V41.666Z" fill="white"/>
<path d="M148.06 22.284H150.972V24H145.837V14.874H148.06V22.284Z" fill="black"/>
<path d="M141.933 22.388H138.527L137.981 24H135.654L138.956 14.874H141.53L144.832 24H142.479L141.933 22.388ZM141.361 20.672L140.23 17.331L139.112 20.672H141.361Z" fill="black"/>
<path d="M125.973 19.424C125.973 18.5227 126.168 17.721 126.558 17.019C126.948 16.3083 127.49 15.758 128.183 15.368C128.885 14.9693 129.678 14.77 130.562 14.77C131.645 14.77 132.573 15.056 133.344 15.628C134.115 16.2 134.631 16.98 134.891 17.968H132.447C132.265 17.5867 132.005 17.2963 131.667 17.097C131.338 16.8977 130.961 16.798 130.536 16.798C129.851 16.798 129.297 17.0363 128.872 17.513C128.447 17.9897 128.235 18.6267 128.235 19.424C128.235 20.2213 128.447 20.8583 128.872 21.335C129.297 21.8117 129.851 22.05 130.536 22.05C130.961 22.05 131.338 21.9503 131.667 21.751C132.005 21.5517 132.265 21.2613 132.447 20.88H134.891C134.631 21.868 134.115 22.648 133.344 23.22C132.573 23.7833 131.645 24.065 130.562 24.065C129.678 24.065 128.885 23.87 128.183 23.48C127.49 23.0813 126.948 22.531 126.558 21.829C126.168 21.127 125.973 20.3253 125.973 19.424Z" fill="black"/>
<path d="M120.446 24.091C119.588 24.091 118.8 23.8917 118.08 23.493C117.37 23.0943 116.802 22.5397 116.377 21.829C115.961 21.1097 115.753 20.3037 115.753 19.411C115.753 18.5183 115.961 17.7167 116.377 17.006C116.802 16.2953 117.37 15.7407 118.08 15.342C118.8 14.9433 119.588 14.744 120.446 14.744C121.304 14.744 122.089 14.9433 122.799 15.342C123.519 15.7407 124.082 16.2953 124.489 17.006C124.905 17.7167 125.113 18.5183 125.113 19.411C125.113 20.3037 124.905 21.1097 124.489 21.829C124.073 22.5397 123.51 23.0943 122.799 23.493C122.089 23.8917 121.304 24.091 120.446 24.091ZM120.446 22.063C121.174 22.063 121.755 21.8203 122.188 21.335C122.63 20.8497 122.851 20.2083 122.851 19.411C122.851 18.605 122.63 17.9637 122.188 17.487C121.755 17.0017 121.174 16.759 120.446 16.759C119.71 16.759 119.12 16.9973 118.678 17.474C118.245 17.9507 118.028 18.5963 118.028 19.411C118.028 20.217 118.245 20.8627 118.678 21.348C119.12 21.8247 119.71 22.063 120.446 22.063Z" fill="black"/>
<path d="M112.158 22.284H115.07V24H109.935V14.874H112.158V22.284Z" fill="black"/>
<path d="M106.064 14.874V16.655H103.646V24H101.423V16.655H99.0054V14.874H106.064Z" fill="black"/>
<path d="M97.8884 14.874V24H95.6654V14.874H97.8884Z" fill="black"/>
<path d="M89.7617 24.091C88.9037 24.091 88.115 23.8917 87.3956 23.493C86.685 23.0943 86.1173 22.5397 85.6926 21.829C85.2766 21.1097 85.0686 20.3037 85.0686 19.411C85.0686 18.5183 85.2766 17.7167 85.6926 17.006C86.1173 16.2953 86.685 15.7407 87.3956 15.342C88.115 14.9433 88.9037 14.744 89.7617 14.744C90.6197 14.744 91.404 14.9433 92.1147 15.342C92.834 15.7407 93.3973 16.2953 93.8046 17.006C94.2206 17.7167 94.4286 18.5183 94.4286 19.411C94.4286 20.3037 94.2206 21.1097 93.8046 21.829C93.3886 22.5397 92.8253 23.0943 92.1147 23.493C91.404 23.8917 90.6197 24.091 89.7617 24.091ZM89.7617 22.063C90.4897 22.063 91.0703 21.8203 91.5036 21.335C91.9456 20.8497 92.1666 20.2083 92.1666 19.411C92.1666 18.605 91.9456 17.9637 91.5036 17.487C91.0703 17.0017 90.4897 16.759 89.7617 16.759C89.025 16.759 88.4356 16.9973 87.9936 17.474C87.5603 17.9507 87.3436 18.5963 87.3436 19.411C87.3436 20.217 87.5603 20.8627 87.9936 21.348C88.4356 21.8247 89.025 22.063 89.7617 22.063Z" fill="black"/>
<path d="M81.6192 24L79.7212 20.555H79.1882V24H76.9652V14.874H80.6962C81.4155 14.874 82.0265 14.9997 82.5292 15.251C83.0405 15.5023 83.4218 15.849 83.6732 16.291C83.9245 16.7243 84.0502 17.2097 84.0502 17.747C84.0502 18.3537 83.8768 18.8953 83.5302 19.372C83.1922 19.8487 82.6895 20.1867 82.0222 20.386L84.1282 24H81.6192ZM79.1882 18.982H80.5662C80.9735 18.982 81.2768 18.8823 81.4762 18.683C81.6842 18.4837 81.7882 18.202 81.7882 17.838C81.7882 17.4913 81.6842 17.2183 81.4762 17.019C81.2768 16.8197 80.9735 16.72 80.5662 16.72H79.1882V18.982Z" fill="black"/>
<path d="M75.8495 14.874V16.655H73.4315V24H71.2085V16.655H68.7905V14.874H75.8495Z" fill="black"/>
<path d="M64.4743 16.655V18.501H67.4513V20.217H64.4743V22.219H67.8413V24H62.2513V14.874H67.8413V16.655H64.4743Z" fill="black"/>
<path d="M56.225 14.874C57.187 14.874 58.0277 15.0647 58.747 15.446C59.4663 15.8273 60.021 16.3647 60.411 17.058C60.8097 17.7427 61.009 18.5357 61.009 19.437C61.009 20.3297 60.8097 21.1227 60.411 21.816C60.021 22.5093 59.462 23.0467 58.734 23.428C58.0147 23.8093 57.1783 24 56.225 24H52.806V14.874H56.225ZM56.082 22.076C56.9227 22.076 57.577 21.8463 58.045 21.387C58.513 20.9277 58.747 20.2777 58.747 19.437C58.747 18.5963 58.513 17.942 58.045 17.474C57.577 17.006 56.9227 16.772 56.082 16.772H55.029V22.076H56.082Z" fill="black"/>
<path d="M21.2872 13.7081L21.3123 13.6872L21.3345 13.6632C22.0725 12.8658 22.9115 12.5 23.7183 12.5C24.525 12.5 25.3641 12.8658 26.102 13.6632L26.1242 13.6872L26.1494 13.7081L39.7507 25.0165L39.7506 25.0165L39.7587 25.023L39.7589 25.0231L39.759 25.0232L39.759 25.0232L39.7592 25.0234L39.7615 25.0252L39.7747 25.036C39.7869 25.0461 39.8059 25.0619 39.8306 25.0831C39.88 25.1255 39.9522 25.1893 40.0396 25.2717C40.215 25.437 40.4483 25.6743 40.6805 25.9617C41.159 26.554 41.5685 27.2804 41.5685 27.9898C41.5685 28.4284 41.4498 28.7306 41.2935 28.9471C41.1332 29.1691 40.9122 29.3297 40.6703 29.4452C40.4277 29.5611 40.1788 29.6244 39.9864 29.658C39.8914 29.6747 39.8132 29.6836 39.7605 29.6882C39.7342 29.6906 39.7146 29.6918 39.7026 29.6925L39.6936 29.6929H37.4809H36.9809V30.1929V46.1117C36.9809 47.0868 36.1812 47.8858 35.1871 47.8858H28.8058V41.5634C28.8058 40.0279 27.5503 38.7893 26.012 38.7893H21.4245C19.8863 38.7893 18.6307 40.0279 18.6307 41.5634V47.8858H12.2494C11.2553 47.8858 10.4556 47.0868 10.4556 46.1117V30.1929V29.6929H9.95564H7.74299L7.73397 29.6925C7.72198 29.6918 7.7023 29.6906 7.67605 29.6882C7.62338 29.6836 7.54518 29.6747 7.45016 29.658C7.25774 29.6244 7.0089 29.5611 6.7663 29.4452C6.52437 29.3297 6.30338 29.1691 6.14309 28.9471C5.98679 28.7306 5.8681 28.4284 5.8681 27.9898C5.8681 27.2804 6.27756 26.554 6.75608 25.9617C6.98823 25.6743 7.22154 25.437 7.39695 25.2717C7.48435 25.1893 7.55656 25.1255 7.60598 25.0831C7.63067 25.0619 7.64961 25.0461 7.66184 25.036L7.67501 25.0252L7.67736 25.0234L7.67743 25.0234L7.68584 25.0165L21.2872 13.7081Z" stroke="white"/>
</g>
<defs>
<clipPath id="clip0_1_2">
<rect width="197" height="60" fill="white"/>
</clipPath>
</defs>
</svg>
