<svg width="3111" height="1089" viewBox="0 0 3111 1089" fill="none" xmlns="http://www.w3.org/2000/svg">
<path d="M2574.91 773.812C2619.37 772.409 2665.93 770.844 2710.33 769.119L2820.44 916.175L2837.39 916.022L2843.36 967.495H2962.2C2951.34 896.422 2892.46 891.96 2892.46 891.96L2842.19 753.687C2948.13 717.138 2958.52 620.082 2969.11 521.188C2980.14 418.191 2991.38 313.201 3111 272.5V179.117L3082.23 180.103C3096.83 161.128 3102.64 133.729 3082.81 86.1934C3077.48 129.476 3042.54 150.803 3009.37 171.043L3009.37 171.044C3002.71 175.107 2996.13 179.127 2989.87 183.272L2915.02 185.842C2913.25 161.829 2930.58 148.285 2949.52 133.493C2980.26 109.473 3015.21 82.1648 2979.4 1.40137C2977.4 51.0214 2940.02 76.7206 2904.68 101.018C2862.12 130.28 2822.52 157.508 2851.23 222.037L2774.95 236.344C2786.29 287.611 2808.68 287.436 2834.67 287.233L2834.68 287.233C2835.43 287.227 2836.18 287.221 2836.93 287.216L2543.55 459.902H2557.74C2675.66 405.985 2779.39 353.376 2890.55 289.097C2907.66 279.2 2918.06 263.244 2920.21 243.619L2923.05 217.639L3068.55 209.776C3072.2 209.584 3075.41 210.76 3078.06 213.266C3080.71 215.772 3082.05 218.917 3082.05 222.561C3082.05 226.124 3082.32 228.881 3082.54 231.098C3083.15 237.346 3083.34 239.315 3075.91 243.005C3051.38 255.189 2960.51 303.927 2932.65 369.784C2932.65 369.784 2952.96 354.134 2977.89 337.117C2950.27 381.712 2927.81 451.315 2927.53 561.563C2927.53 561.563 2910.32 503.25 2905.46 442.66C2902.98 459.497 2901.05 477.132 2899.1 494.913L2899.1 494.916C2890.28 575.432 2881.13 658.948 2819.08 684.941C2819.08 684.941 2835.72 606.311 2792.21 551.335C2792.21 551.335 2820.04 644.987 2774.61 762.931C2774.61 762.931 2713.19 668.64 2711.59 599.279C2711.59 599.279 2690.79 638.274 2702.05 704.503C2664.84 703.442 2621.35 701.664 2574.91 691.557V705.31C2595.1 715.32 2618.46 725.513 2639.61 731.287C2639.61 731.287 2610.95 738.173 2574.91 739.85V773.812Z" fill="white"/>
<path d="M2190.74 459.902L2228.6 359.517C2255.01 289.454 2256 189.077 2128.29 143.881C2128.29 143.881 2119.78 251.724 2189.17 292.688C2199.08 248.221 2178.61 214.762 2178.61 214.762C2234.24 270.349 2188.63 367.218 2156.49 435.458C2152.41 444.114 2148.55 452.31 2145.15 459.902H2190.74Z" fill="white"/>
<path d="M2981.88 582.582L3074.76 643.133L3084.04 710.307L2996.65 834.695H2892.93L2931.5 751.448L2978.09 766.151L2984.03 734.151H2914.97C2925.45 724.549 2934.81 713.49 2942.99 700.858C2965.31 666.338 2975.6 624.556 2981.88 582.582Z" fill="white"/>
<path d="M897.692 139.277L957.071 223.135L1074.54 193.945L993.769 274.962L1053.15 358.82L943.85 325.033L863.079 406.05L876.3 304.152L767.001 270.365L884.471 241.175L897.692 139.277Z" fill="#DE0A0D"/>
<path d="M2370.27 840.692H2270.96V785.978H2293.44V590.729H2270.21V537.889H2357.9L2401.75 667.18V589.605H2380.39V537.889H2483.82V590.729H2462.46V785.978H2483.82V840.692H2402.12L2351.91 686.292V786.727H2370.27V840.692Z" fill="white"/>
<path d="M2064.77 840.318L2040.41 815.959V566.745L2069.26 537.514H2193.68L2222.16 565.621V812.211L2194.43 840.318H2064.77ZM2163.33 591.854H2099.24V787.852H2163.33V591.854Z" fill="white"/>
<path d="M1993.13 787.477V840.318H1890.45V787.477H1912.56V591.104H1890.82V537.514H1993.13V591.854H1971.77V787.477H1993.13Z" fill="white"/>
<path d="M1794.36 840.318H1693.55V787.477H1713.41V591.479H1694.3V627.831H1645.58V539.013H1841.2V627.831H1792.48V591.479H1773.37V787.477H1794.36V840.318Z" fill="white"/>
<path d="M1497.8 840.318H1418.36V788.227H1429.22L1474.57 592.603H1461.45L1461.08 538.264H1551.02V591.854H1540.9L1590.74 787.477H1601.61V840.318H1521.79V787.477H1534.9L1530.78 770.988H1488.44L1483.94 787.477H1497.8V840.318ZM1520.66 730.514L1509.05 683.669L1497.05 730.514H1520.66Z" fill="white"/>
<path d="M1283.16 840.318H1180.85V787.477H1202.21V591.854H1181.23V537.889H1346.49L1374.97 571.617V684.044L1343.12 714.774H1324.38L1365.23 787.477H1376.47V840.318H1291.78V787.477H1304.15L1266.67 717.023H1264.05V787.477H1283.16V840.318ZM1312.39 592.228H1264.05V660.434H1312.39V592.228Z" fill="white"/>
<path d="M975.408 840.318L951.049 815.959V566.745L979.905 537.514H1104.32L1132.81 565.621V812.211L1105.07 840.318H975.408ZM1073.97 591.854H1009.89V787.852H1073.97V591.854Z" fill="white"/>
<path d="M857.581 840.318H756.772V787.477H776.634V591.479H757.521V627.831H708.803V539.013H904.426V627.831H855.708V591.479H836.595V787.477H857.581V840.318Z" fill="white"/>
<path d="M478.27 751.126H537.106V787.852H606.062V714.774H506.751L478.27 687.042V564.871L506.002 538.264H634.918L666.023 568.994V627.081H605.312V592.229H537.481V660.435H637.167L664.899 688.167V811.836L636.042 840.318H510.873L478.27 808.089V751.126Z" fill="white"/>
<path d="M433.878 840.318H236.756V787.477H258.117V591.104H235.257V537.514H433.878V624.833H375.791V591.854H317.329V661.559H362.674V714.774H317.329V787.477H376.54V747.378H433.878V840.318Z" fill="white"/>
<path d="M102.309 840.318H0V787.477H21.3612V591.854H0.374757V537.889H165.643L194.124 571.617V684.044L162.27 714.774H143.532L184.38 787.477H195.623V840.318H110.928V787.477H123.295L85.8194 717.023H83.1961V787.477H102.309V840.318ZM131.54 592.228H83.1961V660.434H131.54V592.228Z" fill="white"/>
<path d="M1976.97 411.696H1834.22L1833.71 339.814H1864.81V107.852H1835.75V57.3818L1896.42 0.793457H1946.89V339.814H1976.97V411.696Z" fill="white"/>
<path d="M1678.64 412.037H1526.9L1526.56 364.298H1547.02V185.617H1526.56V136.172H1679.32L1709.67 162.77V384.417L1678.64 412.037ZM1652.04 185.617H1600.89V363.616H1652.04V185.617Z" fill="white"/>
<path d="M1410.74 412.037H1320.37V362.252H1340.83V184.594H1319.69V136.513H1399.48L1439.38 254.157V183.571H1419.94V136.513H1514.06V184.594H1494.62V362.252H1514.06V412.037H1439.72L1394.03 271.547V362.934H1410.74V412.037Z" fill="white"/>
<path d="M1212.51 411.696H1140.22V364.298H1150.11L1191.37 186.298H1179.43L1179.09 136.854H1260.93V185.616H1251.72L1297.08 363.616H1306.97V411.696H1234.33V363.616H1246.27L1242.52 348.612H1203.98L1199.89 363.616H1212.51V411.696ZM1233.31 311.785L1222.74 269.16L1211.83 311.785H1233.31Z" fill="white"/>
<path d="M597.45 297.463V363.616H616.887V411.696H523.454L524.136 363.616H543.573V184.935H523.795V136.172H616.887V185.617H597.45V246.996H646.212V185.617H626.094V136.172H719.185V185.617H700.09V363.616H719.185V411.696H625.753V363.616H646.212V297.463H597.45Z" fill="white"/>
<path d="M463.301 411.696H371.573V363.616H389.646V185.275H372.255V218.352H327.926V137.536H505.925V218.352H461.596V185.275H444.205V363.616H463.301V411.696Z" fill="white"/>
<path d="M301.75 285.265H276.77V340.324H301.24V412.206H163.083V340.324H190.103V285.265H85.0831L58.5732 214.402L197.24 1.81348H274.73V216.441H301.75V285.265ZM203.868 216.441V112.951L136.064 216.441H203.868Z" fill="white"/>
<path d="M1547.68 1088.13H1513.76V1069.44H1521.44V1002.75H1513.5V984.704H1543.45L1558.43 1028.86V1002.37H1551.13V984.704H1586.46V1002.75H1579.16V1069.44H1586.46V1088.13H1558.56L1541.4 1035.39V1069.7H1547.68V1088.13Z" fill="white"/>
<path d="M1453.57 1088L1445.25 1079.68V994.56L1455.11 984.576H1497.6L1507.33 994.176V1078.4L1497.86 1088H1453.57ZM1487.23 1003.14H1465.35V1070.08H1487.23V1003.14Z" fill="white"/>
<path d="M1423.57 1088H1389.13V1069.95H1395.92V1003.01H1389.39V1015.42H1372.75V985.088H1439.57V1015.42H1422.93V1003.01H1416.4V1069.95H1423.57V1088Z" fill="white"/>
<path d="M1304.25 1057.54H1324.35V1070.08H1347.9V1045.12H1313.98L1304.25 1035.65V993.92L1313.72 984.832H1357.75L1368.38 995.328V1015.17H1347.64V1003.26H1324.47V1026.56H1358.52L1367.99 1036.03V1078.27L1358.14 1088H1315.39L1304.25 1076.99V1057.54Z" fill="white"/>
<path d="M1282.76 1088.38H1252.42L1241.42 1077.12V1002.88H1235.78V985.088H1263.56V1003.14H1258.82V1069.95H1276.49V1003.14H1271.5V985.088H1299.27V1003.14H1293.9V1077.12L1282.76 1088.38Z" fill="white"/>
<path d="M1174.45 1088L1166.12 1079.68V994.56L1175.98 984.576H1218.48L1228.21 994.176V1078.4L1218.73 1088H1174.45ZM1208.11 1003.14H1186.22V1070.08H1208.11V1003.14Z" fill="white"/>
<path d="M1115.17 1045.12V1069.95H1122.47V1088H1087.4L1087.65 1069.95H1094.95V1002.88H1087.52V984.576H1122.47V1003.14H1115.17V1026.18H1133.48V1003.14H1125.92V984.576H1160.87V1003.14H1153.7V1069.95H1160.87V1088H1125.8V1069.95H1133.48V1045.12H1115.17Z" fill="white"/>
<path d="M1009.32 1088H974.25V1069.95H981.546V1003.14H974.378V984.576H1041.96V1014.4H1022.25V1003.14H1001.77V1026.94H1017.64V1045.12H1001.77V1069.95H1009.32V1088Z" fill="white"/>
<path d="M914.32 1088L906 1079.68V994.56L915.856 984.576H958.352L968.08 994.176V1078.4L958.608 1088H914.32ZM947.984 1003.14H926.096V1070.08H947.984V1003.14Z" fill="white"/>
<path d="M13 1031H845V1049H13V1031Z" fill="#79A9FF"/>
<path d="M1651 1031H2483V1049H1651V1031Z" fill="#2675FF"/>
</svg>
