<svg width="197" height="60" viewBox="0 0 197 60" fill="none" xmlns="http://www.w3.org/2000/svg">
<g clip-path="url(#clip0_2_2)">
<path d="M55.98 49L53.206 43.965H52.427V49H49.178V35.662H54.631C55.6823 35.662 56.5753 35.8457 57.31 36.213C58.0573 36.5803 58.6147 37.087 58.982 37.733C59.3493 38.3663 59.533 39.0757 59.533 39.861C59.533 40.7477 59.2797 41.5393 58.773 42.236C58.279 42.9327 57.5443 43.4267 56.569 43.718L59.647 49H55.98ZM52.427 41.666H54.441C55.0363 41.666 55.4797 41.5203 55.771 41.229C56.075 40.9377 56.227 40.526 56.227 39.994C56.227 39.4873 56.075 39.0883 55.771 38.797C55.4797 38.5057 55.0363 38.36 54.441 38.36H52.427V41.666ZM67.8805 49.133C66.6265 49.133 65.4739 48.8417 64.4225 48.259C63.3839 47.6763 62.5542 46.8657 61.9335 45.827C61.3255 44.7757 61.0215 43.5977 61.0215 42.293C61.0215 40.9883 61.3255 39.8167 61.9335 38.778C62.5542 37.7393 63.3839 36.9287 64.4225 36.346C65.4739 35.7633 66.6265 35.472 67.8805 35.472C69.1345 35.472 70.2809 35.7633 71.3195 36.346C72.3709 36.9287 73.1942 37.7393 73.7895 38.778C74.3975 39.8167 74.7015 40.9883 74.7015 42.293C74.7015 43.5977 74.3975 44.7757 73.7895 45.827C73.1815 46.8657 72.3582 47.6763 71.3195 48.259C70.2809 48.8417 69.1345 49.133 67.8805 49.133ZM67.8805 46.169C68.9445 46.169 69.7932 45.8143 70.4265 45.105C71.0725 44.3957 71.3955 43.4583 71.3955 42.293C71.3955 41.115 71.0725 40.1777 70.4265 39.481C69.7932 38.7717 68.9445 38.417 67.8805 38.417C66.8039 38.417 65.9425 38.7653 65.2965 39.462C64.6632 40.1587 64.3465 41.1023 64.3465 42.293C64.3465 43.471 64.6632 44.4147 65.2965 45.124C65.9425 45.8207 66.8039 46.169 67.8805 46.169ZM82.8171 49.133C81.5631 49.133 80.4104 48.8417 79.3591 48.259C78.3204 47.6763 77.4907 46.8657 76.8701 45.827C76.2621 44.7757 75.9581 43.5977 75.9581 42.293C75.9581 40.9883 76.2621 39.8167 76.8701 38.778C77.4907 37.7393 78.3204 36.9287 79.3591 36.346C80.4104 35.7633 81.5631 35.472 82.8171 35.472C84.0711 35.472 85.2174 35.7633 86.2561 36.346C87.3074 36.9287 88.1307 37.7393 88.7261 38.778C89.3341 39.8167 89.6381 40.9883 89.6381 42.293C89.6381 43.5977 89.3341 44.7757 88.7261 45.827C88.1181 46.8657 87.2947 47.6763 86.2561 48.259C85.2174 48.8417 84.0711 49.133 82.8171 49.133ZM82.8171 46.169C83.8811 46.169 84.7297 45.8143 85.3631 45.105C86.0091 44.3957 86.3321 43.4583 86.3321 42.293C86.3321 41.115 86.0091 40.1777 85.3631 39.481C84.7297 38.7717 83.8811 38.417 82.8171 38.417C81.7404 38.417 80.8791 38.7653 80.2331 39.462C79.5997 40.1587 79.2831 41.1023 79.2831 42.293C79.2831 43.471 79.5997 44.4147 80.2331 45.124C80.8791 45.8207 81.7404 46.169 82.8171 46.169ZM100.129 35.662V38.265H94.6946V41.077H98.7606V43.604H94.6946V49H91.4456V35.662H100.129ZM105.085 35.662V49H101.836V35.662H105.085ZM119.372 49H116.123L110.689 40.773V49H107.44V35.662H110.689L116.123 43.927V35.662H119.372V49ZM130.581 39.88C130.34 39.4367 129.992 39.101 129.536 38.873C129.092 38.6323 128.567 38.512 127.959 38.512C126.907 38.512 126.065 38.8603 125.432 39.557C124.798 40.241 124.482 41.1593 124.482 42.312C124.482 43.5407 124.811 44.5033 125.47 45.2C126.141 45.884 127.059 46.226 128.225 46.226C129.023 46.226 129.694 46.0233 130.239 45.618C130.796 45.2127 131.201 44.63 131.455 43.87H127.332V41.476H134.4V44.497C134.159 45.3077 133.747 46.0613 133.165 46.758C132.595 47.4547 131.866 48.0183 130.98 48.449C130.093 48.8797 129.092 49.095 127.978 49.095C126.66 49.095 125.482 48.81 124.444 48.24C123.418 47.6573 122.613 46.853 122.031 45.827C121.461 44.801 121.176 43.6293 121.176 42.312C121.176 40.9947 121.461 39.823 122.031 38.797C122.613 37.7583 123.418 36.954 124.444 36.384C125.47 35.8013 126.641 35.51 127.959 35.51C129.555 35.51 130.897 35.8963 131.987 36.669C133.089 37.4417 133.817 38.512 134.172 39.88H130.581ZM150.391 39.956C150.391 40.7287 150.214 41.438 149.859 42.084C149.504 42.7173 148.96 43.2303 148.225 43.623C147.49 44.0157 146.578 44.212 145.489 44.212H143.475V49H140.226V35.662H145.489C146.553 35.662 147.452 35.8457 148.187 36.213C148.922 36.5803 149.473 37.087 149.84 37.733C150.207 38.379 150.391 39.12 150.391 39.956ZM145.242 41.628C145.863 41.628 146.325 41.4823 146.629 41.191C146.933 40.8997 147.085 40.488 147.085 39.956C147.085 39.424 146.933 39.0123 146.629 38.721C146.325 38.4297 145.863 38.284 145.242 38.284H143.475V41.628H145.242ZM158.884 49L156.11 43.965H155.331V49H152.082V35.662H157.535C158.587 35.662 159.48 35.8457 160.214 36.213C160.962 36.5803 161.519 37.087 161.886 37.733C162.254 38.3663 162.437 39.0757 162.437 39.861C162.437 40.7477 162.184 41.5393 161.677 42.236C161.183 42.9327 160.449 43.4267 159.473 43.718L162.551 49H158.884ZM155.331 41.666H157.345C157.941 41.666 158.384 41.5203 158.675 41.229C158.979 40.9377 159.131 40.526 159.131 39.994C159.131 39.4873 158.979 39.0883 158.675 38.797C158.384 38.5057 157.941 38.36 157.345 38.36H155.331V41.666ZM170.785 49.133C169.531 49.133 168.378 48.8417 167.327 48.259C166.288 47.6763 165.458 46.8657 164.838 45.827C164.23 44.7757 163.926 43.5977 163.926 42.293C163.926 40.9883 164.23 39.8167 164.838 38.778C165.458 37.7393 166.288 36.9287 167.327 36.346C168.378 35.7633 169.531 35.472 170.785 35.472C172.039 35.472 173.185 35.7633 174.224 36.346C175.275 36.9287 176.098 37.7393 176.694 38.778C177.302 39.8167 177.606 40.9883 177.606 42.293C177.606 43.5977 177.302 44.7757 176.694 45.827C176.086 46.8657 175.262 47.6763 174.224 48.259C173.185 48.8417 172.039 49.133 170.785 49.133ZM170.785 46.169C171.849 46.169 172.697 45.8143 173.331 45.105C173.977 44.3957 174.3 43.4583 174.3 42.293C174.3 41.115 173.977 40.1777 173.331 39.481C172.697 38.7717 171.849 38.417 170.785 38.417C169.708 38.417 168.847 38.7653 168.201 39.462C167.567 40.1587 167.251 41.1023 167.251 42.293C167.251 43.471 167.567 44.4147 168.201 45.124C168.847 45.8207 169.708 46.169 170.785 46.169ZM184.239 49.133C183.264 49.133 182.39 48.9747 181.617 48.658C180.845 48.3413 180.224 47.8727 179.755 47.252C179.299 46.6313 179.059 45.884 179.033 45.01H182.491C182.542 45.504 182.713 45.884 183.004 46.15C183.296 46.4033 183.676 46.53 184.144 46.53C184.626 46.53 185.006 46.4223 185.284 46.207C185.563 45.979 185.702 45.6687 185.702 45.276C185.702 44.9467 185.588 44.6743 185.36 44.459C185.145 44.2437 184.873 44.0663 184.543 43.927C184.227 43.7877 183.771 43.6293 183.175 43.452C182.314 43.186 181.611 42.92 181.066 42.654C180.522 42.388 180.053 41.9953 179.66 41.476C179.268 40.9567 179.071 40.279 179.071 39.443C179.071 38.2017 179.521 37.2327 180.42 36.536C181.32 35.8267 182.491 35.472 183.935 35.472C185.405 35.472 186.589 35.8267 187.488 36.536C188.388 37.2327 188.869 38.208 188.932 39.462H185.417C185.392 39.0313 185.234 38.6957 184.942 38.455C184.651 38.2017 184.277 38.075 183.821 38.075C183.429 38.075 183.112 38.1827 182.871 38.398C182.631 38.6007 182.51 38.8983 182.51 39.291C182.51 39.7217 182.713 40.0573 183.118 40.298C183.524 40.5387 184.157 40.7983 185.018 41.077C185.88 41.3683 186.576 41.647 187.108 41.913C187.653 42.179 188.122 42.5653 188.514 43.072C188.907 43.5787 189.103 44.231 189.103 45.029C189.103 45.789 188.907 46.4793 188.514 47.1C188.134 47.7207 187.577 48.2147 186.842 48.582C186.108 48.9493 185.24 49.133 184.239 49.133Z" fill="black"/>
<path fill-rule="evenodd" clip-rule="evenodd" d="M52 12C50.3431 12 49 13.3431 49 15V24C49 25.6569 50.3431 27 52 27H154C155.657 27 157 25.6569 157 24V15C157 13.3431 155.657 12 154 12H52ZM58.747 15.446C58.0277 15.0647 57.187 14.874 56.225 14.874H52.806V24H56.225C57.1783 24 58.0147 23.8093 58.734 23.428C59.462 23.0467 60.021 22.5093 60.411 21.816C60.8097 21.1227 61.009 20.3297 61.009 19.437C61.009 18.5357 60.8097 17.7427 60.411 17.058C60.021 16.3647 59.4663 15.8273 58.747 15.446ZM58.045 21.387C57.577 21.8463 56.9227 22.076 56.082 22.076H55.029V16.772H56.082C56.9227 16.772 57.577 17.006 58.045 17.474C58.513 17.942 58.747 18.5963 58.747 19.437C58.747 20.2777 58.513 20.9277 58.045 21.387ZM64.4743 18.501V16.655H67.8413V14.874H62.2513V24H67.8413V22.219H64.4743V20.217H67.4513V18.501H64.4743ZM75.8495 16.655V14.874H68.7905V16.655H71.2085V24H73.4315V16.655H75.8495ZM79.7212 20.555L81.6192 24H84.1282L82.0222 20.386C82.6895 20.1867 83.1922 19.8487 83.5302 19.372C83.8768 18.8953 84.0502 18.3537 84.0502 17.747C84.0502 17.2097 83.9245 16.7243 83.6732 16.291C83.4218 15.849 83.0405 15.5023 82.5292 15.251C82.0265 14.9997 81.4155 14.874 80.6962 14.874H76.9652V24H79.1882V20.555H79.7212ZM80.5662 18.982H79.1882V16.72H80.5662C80.9735 16.72 81.2768 16.8197 81.4762 17.019C81.6842 17.2183 81.7882 17.4913 81.7882 17.838C81.7882 18.202 81.6842 18.4837 81.4762 18.683C81.2768 18.8823 80.9735 18.982 80.5662 18.982ZM87.3956 23.493C88.115 23.8917 88.9036 24.091 89.7617 24.091C90.6196 24.091 91.404 23.8917 92.1147 23.493C92.8253 23.0943 93.3886 22.5397 93.8046 21.829C94.2206 21.1097 94.4286 20.3037 94.4286 19.411C94.4286 18.5183 94.2206 17.7167 93.8046 17.006C93.3973 16.2953 92.834 15.7407 92.1147 15.342C91.404 14.9433 90.6196 14.744 89.7617 14.744C88.9036 14.744 88.115 14.9433 87.3956 15.342C86.685 15.7407 86.1173 16.2953 85.6926 17.006C85.2766 17.7167 85.0686 18.5183 85.0686 19.411C85.0686 20.3037 85.2766 21.1097 85.6926 21.829C86.1173 22.5397 86.685 23.0943 87.3956 23.493ZM91.5036 21.335C91.0703 21.8203 90.4896 22.063 89.7617 22.063C89.025 22.063 88.4356 21.8247 87.9936 21.348C87.5603 20.8627 87.3436 20.217 87.3436 19.411C87.3436 18.5963 87.5603 17.9507 87.9936 17.474C88.4356 16.9973 89.025 16.759 89.7617 16.759C90.4896 16.759 91.0703 17.0017 91.5036 17.487C91.9456 17.9637 92.1666 18.605 92.1666 19.411C92.1666 20.2083 91.9456 20.8497 91.5036 21.335ZM95.6654 24H97.8884V14.874H95.6654V24ZM106.064 16.655V14.874H99.0054V16.655H101.423V24H103.646V16.655H106.064ZM115.07 22.284H112.158V14.874H109.935V24H115.07V22.284ZM118.08 23.493C118.8 23.8917 119.588 24.091 120.446 24.091C121.304 24.091 122.089 23.8917 122.799 23.493C123.51 23.0943 124.073 22.5397 124.489 21.829C124.905 21.1097 125.113 20.3037 125.113 19.411C125.113 18.5183 124.905 17.7167 124.489 17.006C124.082 16.2953 123.519 15.7407 122.799 15.342C122.089 14.9433 121.304 14.744 120.446 14.744C119.588 14.744 118.8 14.9433 118.08 15.342C117.37 15.7407 116.802 16.2953 116.377 17.006C115.961 17.7167 115.753 18.5183 115.753 19.411C115.753 20.3037 115.961 21.1097 116.377 21.829C116.802 22.5397 117.37 23.0943 118.08 23.493ZM122.188 21.335C121.755 21.8203 121.174 22.063 120.446 22.063C119.71 22.063 119.12 21.8247 118.678 21.348C118.245 20.8627 118.028 20.217 118.028 19.411C118.028 18.5963 118.245 17.9507 118.678 17.474C119.12 16.9973 119.71 16.759 120.446 16.759C121.174 16.759 121.755 17.0017 122.188 17.487C122.63 17.9637 122.851 18.605 122.851 19.411C122.851 20.2083 122.63 20.8497 122.188 21.335ZM126.558 17.019C126.168 17.721 125.973 18.5227 125.973 19.424C125.973 20.3253 126.168 21.127 126.558 21.829C126.948 22.531 127.49 23.0813 128.183 23.48C128.885 23.87 129.678 24.065 130.562 24.065C131.645 24.065 132.573 23.7833 133.344 23.22C134.115 22.648 134.631 21.868 134.891 20.88H132.447C132.265 21.2613 132.005 21.5517 131.667 21.751C131.338 21.9503 130.961 22.05 130.536 22.05C129.851 22.05 129.297 21.8117 128.872 21.335C128.447 20.8583 128.235 20.2213 128.235 19.424C128.235 18.6267 128.447 17.9897 128.872 17.513C129.297 17.0363 129.851 16.798 130.536 16.798C130.961 16.798 131.338 16.8977 131.667 17.097C132.005 17.2963 132.265 17.5867 132.447 17.968H134.891C134.631 16.98 134.115 16.2 133.344 15.628C132.573 15.056 131.645 14.77 130.562 14.77C129.678 14.77 128.885 14.9693 128.183 15.368C127.49 15.758 126.948 16.3083 126.558 17.019ZM137.981 24L138.527 22.388H141.933L142.479 24H144.832L141.53 14.874H138.956L135.654 24H137.981ZM140.23 17.331L141.361 20.672H139.112L140.23 17.331ZM150.972 22.284H148.06V14.874H145.837V24H150.972V22.284Z" fill="black"/>
<path d="M21.2872 13.7081L21.3123 13.6872L21.3345 13.6632C22.0725 12.8658 22.9115 12.5 23.7183 12.5C24.525 12.5 25.3641 12.8658 26.102 13.6632L26.1242 13.6872L26.1494 13.7081L39.7507 25.0165L39.7506 25.0165L39.7587 25.023L39.7589 25.0231L39.759 25.0232L39.759 25.0232L39.7592 25.0234L39.7615 25.0252L39.7747 25.036C39.7869 25.0461 39.8059 25.0619 39.8306 25.0831C39.88 25.1255 39.9522 25.1893 40.0396 25.2717C40.215 25.437 40.4483 25.6743 40.6805 25.9617C41.159 26.554 41.5685 27.2804 41.5685 27.9898C41.5685 28.4284 41.4498 28.7306 41.2935 28.9471C41.1332 29.1691 40.9122 29.3297 40.6703 29.4452C40.4277 29.5611 40.1788 29.6244 39.9864 29.658C39.8914 29.6747 39.8132 29.6836 39.7605 29.6882C39.7342 29.6906 39.7146 29.6918 39.7026 29.6925L39.6936 29.6929H37.4809H36.9809V30.1929V46.1117C36.9809 47.0868 36.1812 47.8858 35.1871 47.8858H28.8058V41.5634C28.8058 40.0279 27.5503 38.7893 26.012 38.7893H21.4245C19.8863 38.7893 18.6307 40.0279 18.6307 41.5634V47.8858H12.2494C11.2553 47.8858 10.4556 47.0868 10.4556 46.1117V30.1929V29.6929H9.95564H7.74299L7.73397 29.6925C7.72198 29.6918 7.7023 29.6906 7.67605 29.6882C7.62338 29.6836 7.54518 29.6747 7.45016 29.658C7.25774 29.6244 7.0089 29.5611 6.7663 29.4452C6.52437 29.3297 6.30338 29.1691 6.14309 28.9471C5.98679 28.7306 5.8681 28.4284 5.8681 27.9898C5.8681 27.2804 6.27756 26.554 6.75608 25.9617C6.98823 25.6743 7.22154 25.437 7.39695 25.2717C7.48435 25.1893 7.55656 25.1255 7.60598 25.0831C7.63067 25.0619 7.64961 25.0461 7.66184 25.036L7.67501 25.0252L7.67736 25.0234L7.67743 25.0234L7.68584 25.0165L21.2872 13.7081Z" stroke="black"/>
</g>
<defs>
<clipPath id="clip0_2_2">
<rect width="197" height="60" fill="white"/>
</clipPath>
</defs>
</svg>
